<svg xmlns="http://www.w3.org/2000/svg" width="18" height="12" viewBox="0 0 18 12">
    <g fill="none" fill-rule="evenodd">
        <g fill="#FFF" fill-rule="nonzero">
            <g>
                <g>
                    <g>
                        <g>
                            <g>
                                <path d="M1.336.077c-.263 0-.504.076-.71.2l7.625 6.396c.403.338.89.338 1.294 0L17.183.271c-.205-.123-.448-.194-.71-.194H1.337zm-1.26.87C.03 1.076 0 1.214 0 1.36v8.554c0 .71.596 1.283 1.336 1.283h15.138c.74 0 1.336-.572 1.336-1.283V1.36c0-.145-.03-.283-.077-.414l-7.604 6.375c-.708.594-1.754.588-2.463-.006L.076.946z" transform="translate(-315.000000, -7343.000000) translate(71.000000, 6779.000000) translate(0.000000, 212.000000) translate(236.000000, 341.000000) translate(8.095238, 11.333333)"/>
                            </g>
                        </g>
                    </g>
                </g>
            </g>
        </g>
    </g>
</svg>
