<?xml version="1.0" encoding="UTF-8"?>
<!--Generator: Apple Native CoreSVG 175.5-->
<!DOCTYPE svg
PUBLIC "-//W3C//DTD SVG 1.1//EN"
       "http://www.w3.org/Graphics/SVG/1.1/DTD/svg11.dtd">
<svg version="1.1" xmlns="http://www.w3.org/2000/svg" xmlns:xlink="http://www.w3.org/1999/xlink" width="42.4016" height="39.7692">
 <g>
  <rect height="39.7692" opacity="0" width="42.4016" x="0" y="0"/>
  <path d="M0.430485 35.0115C3.6922 39.699 10.8992 41.3006 15.5086 38.0975C19.493 35.324 20.3719 31.0272 17.7352 27.2772C15.3719 23.8787 11.0945 22.9217 8.28205 24.9334C5.03986 27.2381 6.34845 30.4022 4.35627 31.8084C2.69611 32.9998 1.54377 32.2576 0.586735 32.9022C-0.0382653 33.2928-0.27264 34.035 0.430485 35.0115ZM18.4774 24.3865C19.9031 25.8123 20.9774 27.7069 21.2313 29.2498C22.8133 28.9959 24.0828 28.2537 25.411 26.9256C25.6258 26.7303 25.8211 26.5155 26.0164 26.2811C25.157 21.574 21.2313 17.7069 16.6024 16.8475C16.368 17.0428 16.1531 17.2576 15.9383 17.4725C14.6102 18.8006 13.8875 20.1092 13.6336 21.6522C15.157 21.9061 17.0711 22.9608 18.4774 24.3865ZM36.8953 1.16389C35.8992 1.88655 25.0399 9.32795 18.3797 15.2069C22.7938 16.5936 26.2508 20.0311 27.657 24.5037C33.575 17.8436 40.9969 7.00373 41.7195 5.98811C44.0242 2.76545 40.0008-1.1408 36.8953 1.16389Z" fill="#ffffff"/>
 </g>
</svg>
