<svg xmlns="http://www.w3.org/2000/svg" width="16" height="16" viewBox="0 0 16 16">
    <g fill="none" fill-rule="evenodd">
        <g fill="#000">
            <g>
                <path d="M12.394 9.77c-.826 0-1.607.367-2.126 1L5.665 8.503c.122-.462.114-.947-.023-1.404l4.689-2.496c.913 1.04 2.475 1.236 3.624.455 1.149-.781 1.515-2.289.85-3.498-.665-1.208-2.148-1.73-3.44-1.21-1.293.521-1.98 1.917-1.593 3.237L5.083 6.085c-.753-.855-1.97-1.154-3.043-.75C.966 5.74.264 6.764.283 7.896c.02 1.131.756 2.13 1.842 2.5 1.087.369 2.292.03 3.017-.849l4.603 2.266c-.286 1.115.18 2.285 1.159 2.913.978.628 2.254.574 3.175-.133.921-.708 1.284-1.913.904-3-.381-1.087-1.421-1.816-2.59-1.815v-.008zm0-8.462c.863 0 1.563.688 1.563 1.538 0 .85-.7 1.539-1.563 1.539-.864 0-1.563-.69-1.563-1.539 0-.85.7-1.538 1.563-1.538zM3.016 9.385c-.863 0-1.563-.69-1.563-1.539 0-.85.7-1.538 1.563-1.538.864 0 1.563.688 1.563 1.538 0 .85-.7 1.539-1.563 1.539zM12.394 14c-.864 0-1.563-.689-1.563-1.538 0-.85.7-1.539 1.563-1.539s1.563.689 1.563 1.539S13.257 14 12.394 14z" transform="translate(-161 -1082) translate(161 1082) scale(1 -1) rotate(90 15.366 0)"/>
            </g>
        </g>
    </g>
</svg>
