<?xml version="1.0" encoding="UTF-8"?>
<svg width="34px" height="27px" viewBox="0 0 34 27" version="1.1" xmlns="http://www.w3.org/2000/svg" xmlns:xlink="http://www.w3.org/1999/xlink">
    <!-- Generator: Sketch 63.1 (92452) - https://sketch.com -->
    <title>noun_shopping bags_635669</title>
    <desc>Created with Sketch.</desc>
    <g id="LANDING-" stroke="none" stroke-width="1" fill="none" fill-rule="evenodd">
        <g id="Landing-desktop" transform="translate(-1027.000000, -1199.000000)" fill="#FFFFFF" fill-rule="nonzero">
            <g id="benefit_section" transform="translate(71.000000, 986.000000)">
                <g id="Group-10" transform="translate(937.000000, 190.000000)">
                    <g id="icon_cost">
                        <g id="noun_shopping-bags_635669" transform="translate(19.000000, 23.000000)">
                            <g id="Group">
                                <g>
                                    <g>
                                        <rect id="Rectangle" x="14.3555556" y="14.04" width="19.1794872" height="12.65625" rx="2"></rect>
                                        <path d="M14.3555556,5.4 L17.1149775,5.4 C17.7255478,5.4 18.2205128,5.88143149 18.2205128,6.47853746 L18.2205128,12.42 L14.9078096,12.42 C13.688592,12.42 12.6991453,13.3875191 12.6991453,14.5810144 L12.6991453,25.9189856 C12.6991453,26.3127709 12.8068421,26.6820029 12.9949952,27 L1.10553532,27 C0.494965022,27 4.02640884e-14,26.5185685 4.02640884e-14,25.9214625 L4.02640884e-14,6.47853746 C4.02640884e-14,5.88287767 0.496804328,5.4 1.10553532,5.4 L4.41709402,5.4 L4.41709402,8.68469175 C4.41709402,9.28115928 4.91149411,9.76469175 5.52136752,9.76469175 C6.13124094,9.76469175 6.62564103,9.28115928 6.62564103,8.68469175 L6.62564103,5.4 L12.1470085,5.4 L12.1470085,8.68469175 C12.1470085,9.28115928 12.6414086,9.76469175 13.2512821,9.76469175 C13.8611555,9.76469175 14.3555556,9.28115928 14.3555556,8.68469175 L14.3555556,5.4 L14.3555556,5.4 Z" id="Path"></path>
                                        <path d="M14.3555556,4.32 C14.3555556,1.89400541 12.0962191,-1.68240422e-13 9.38632479,-1.68240422e-13 C6.67643043,-1.68240422e-13 4.41709402,1.89400541 4.41709402,4.32 L4.41709402,5.44469175 L6.62564103,5.44469175 L6.62564103,4.32 C6.62564103,3.16718941 7.82710523,2.16 9.38632479,2.16 C10.9455443,2.16 12.1470085,3.16718941 12.1470085,4.32 L12.1470085,5.44469175 L14.3555556,5.44469175 L14.3555556,4.32 Z" id="Path"></path>
                                    </g>
                                </g>
                            </g>
                        </g>
                    </g>
                </g>
            </g>
        </g>
    </g>
</svg>