<?xml version="1.0" encoding="UTF-8"?>
<svg width="33px" height="23px" viewBox="0 0 33 23" version="1.1" xmlns="http://www.w3.org/2000/svg" xmlns:xlink="http://www.w3.org/1999/xlink">
    <!-- Generator: Sketch 63.1 (92452) - https://sketch.com -->
    <title>noun_Camera_3962001</title>
    <desc>Created with Sketch.</desc>
    <g id="LANDING-" stroke="none" stroke-width="1" fill="none" fill-rule="evenodd">
        <g id="Landing-desktop" transform="translate(-597.000000, -1508.000000)" fill="#FFFFFF" fill-rule="nonzero">
            <g id="benefit_section" transform="translate(71.000000, 986.000000)">
                <g id="system" transform="translate(506.000000, 498.000000)">
                    <g id="icon_system">
                        <g id="noun_Camera_3962001" transform="translate(20.000000, 24.000000)">
                            <g id="Group">
                                <path d="M21.4073276,12.4579767 C21.4073276,15.1041731 19.1255312,17.2493666 16.3107241,17.2494651 C13.4959171,17.2495635 11.2139509,15.1045296 11.2137414,12.4583333 C11.2135319,9.81213698 13.4951585,7.66678377 16.3099655,7.66648837 C19.1248466,7.66648837 21.4067586,9.81171079 21.4067586,12.4579767 L21.4073276,12.4579767 Z" id="Path"></path>
                                <path d="M4.07777586,3.83351163 C1.82590462,3.83351161 0,5.54950725 0,7.66648837 L0,19.1664884 C0,20.1831989 0.429621581,21.1582676 1.1943529,21.8771904 C1.95908422,22.5961133 2.99628246,23 4.07777586,23 L28.5432931,23 C29.6247865,23 30.6619848,22.5961133 31.4267161,21.8771904 C32.1914474,21.1582676 32.621069,20.1831989 32.621069,19.1664884 L32.621069,7.66648837 C32.621069,5.54929836 30.7953865,3.83297674 28.5432931,3.83297674 L26.1536379,3.83297674 C25.0724256,3.83265696 24.0356211,3.4286169 23.2712586,2.70972093 L21.582569,1.12325581 C20.8180317,0.404278612 19.7810177,0.000236694766 18.6996207,0 L13.9203103,0 C12.839098,0.000319783672 11.8022935,0.404359847 11.037931,1.12325581 L9.34981034,2.71025581 C8.58527306,3.42923302 7.54825911,3.83327493 6.46686207,3.83351163 L4.07777586,3.83351163 Z M5.09736207,7.66702326 C5.66046398,7.66702326 6.11694828,7.23788298 6.11694828,6.70851163 C6.11694828,6.17914027 5.66046398,5.75 5.09736207,5.75 C4.53426016,5.75 4.07777586,6.17914027 4.07777586,6.70851163 C4.07808976,7.23746529 4.53413549,7.66619328 5.0967931,7.66648837 L5.09736207,7.66702326 Z M23.4465,12.4585116 C23.4465,16.1635203 20.2516194,19.1670233 16.3105345,19.1670233 C12.3694496,19.1670233 9.17456897,16.1635203 9.17456897,12.4585116 C9.17456897,8.75350296 12.3694496,5.75 16.3105345,5.75 C20.2513972,5.75029539 23.445931,8.75371184 23.445931,12.4585116 L23.4465,12.4585116 Z" id="Shape"></path>
                            </g>
                        </g>
                    </g>
                </g>
            </g>
        </g>
    </g>
</svg>