<svg version="1.1" id="Layer_1" xmlns="http://www.w3.org/2000/svg" xmlns:xlink="http://www.w3.org/1999/xlink" x="0px" y="0px" viewBox="0 0 1000 388.06" style="enable-background:new 0 0 1000 388.06;" xml:space="preserve">
    <g id="ludovic-logo-white" fill="#000">
        <path d="M457.61,380.74V0.3h-32.39h-27.12v6.98h27.12h0.06v229.85c0,6.98,0.37,13.23,0.37,13.23h-0.74
            c-8.45-15.8-22.78-29.02-47.39-29.02c-41.51,0-73.48,42.62-73.48,84.13c0,56.21,36.37,82.3,73.48,82.3
            c29.03,0,43.72-18.37,49.97-36h0.74c0,0-0.31,30.8-0.36,35.97h29.75l0,0h27.12v-6.98H457.61z M379.35,380.4
            c-33.8,0-39.68-42.98-39.68-75.68c0-32.7,5.14-75.68,41.15-75.68c33.07,0,46.29,30.49,46.29,75.68
            C427.11,349.91,412.42,380.4,379.35,380.4z"></path>
        <path d="M270.03,268.57c-8.35,34.47-21.59,61.68-39.72,81.63c-18.14,19.95-43.17,29.93-75.09,29.93h-23.84H81.53V7.94h0.05V7.29
            h27.08V0.31H87.51h-0.04h-5.88h-0.01h-0.03h-0.01h-54.4h-0.01H0v6.98h27.12v0.64v372.82H0v6.98h27.12h0.01h104.25h144.64V268.57
            H270.03z"></path>
        <path d="M994.27,275.06c-3.79,18.62-21.86,105.69-126.56,105.7c-18.39,0-33.49-2.77-45.3-8.33c-11.8-5.55-21.18-12.58-28.13-21.1
            c-6.94-8.5-11.8-17.7-14.58-27.61c-2.77-9.9-4.17-19.01-4.17-27.34c0-12.15,2.26-22.56,6.77-31.25
            c4.52-8.68,10.25-16.06,17.19-22.14c6.95-6.06,14.51-11.02,22.65-14.84c8.17-3.81,15.89-6.77,23.18-8.85l59.9-18.23
            c28.13-8.68,49.41-20.14,63.8-34.38c14.42-14.23,21.62-33.34,21.62-57.3c0-15.63-2.77-30.12-8.33-43.5
            c-5.55-13.35-13.37-24.9-23.44-34.63c-10.06-9.72-22.14-17.36-36.21-22.92C908.61,2.78,893.25,0,876.59,0
            c-12.15,0-22.31,1.04-30.48,3.13c-8.15,2.08-15.18,4.43-21.09,7.04c-5.9,2.59-11.2,4.94-15.89,7.03
            c-4.69,2.08-9.45,3.13-14.32,3.13c-4.51,0-7.56-0.6-9.12-1.82c-1.56-1.22-3.72-4.26-6.51-9.12h-7.29l-15.52,93.09
            c15.52-33.04,45.32-70.18,80.88-87.11c11.29-5.37,24.4-8.07,39.33-8.07c8.33,0,17.54,1.13,27.61,3.39
            c10.07,2.26,19.45,6.16,28.13,11.71c8.69,5.56,15.88,12.86,21.61,21.88c5.73,9.03,8.6,20.49,8.6,34.38
            c0,11.12-2.25,20.57-6.77,28.38c-4.51,7.81-10.33,14.42-17.45,19.79c-7.1,5.4-15.11,9.9-23.96,13.54
            c-8.86,3.66-17.79,6.87-26.82,9.64l-63.03,19.79c-6.59,2.08-14.93,4.87-25,8.33c-10.06,3.48-19.87,8.69-29.43,15.63
            c-4.94,3.59-9.5,7.8-13.69,12.6c-4.2-4.8-8.76-9.01-13.69-12.6c-9.56-6.94-19.37-12.15-29.44-15.63c-10.07-3.47-18.41-6.25-25-8.33
            l-63.03-19.79c-9.03-2.77-17.96-5.98-26.82-9.64c-8.86-3.65-16.86-8.15-23.96-13.54c-7.13-5.37-12.94-11.98-17.45-19.79
            c-4.52-7.81-6.77-17.27-6.77-28.38c0-13.89,2.87-25.35,8.6-34.38c5.73-9.02,12.92-16.31,21.61-21.88
            c8.68-5.55,18.05-9.45,28.13-11.71c10.06-2.26,19.27-3.39,27.61-3.39c14.93,0,28.04,2.69,39.33,8.07
            c35.57,16.93,65.36,54.07,80.88,87.11L740.84,9.38h-7.29c-2.78,4.87-4.94,7.9-6.5,9.12c-1.56,1.22-4.61,1.82-9.12,1.82
            c-4.87,0-9.63-1.04-14.32-3.13c-4.69-2.08-10-4.43-15.89-7.03c-5.91-2.6-12.94-4.95-21.09-7.04C658.46,1.04,648.3,0,636.15,0
            c-16.67,0-32.03,2.78-46.09,8.33c-14.06,5.56-26.14,13.2-36.21,22.92c-10.07,9.73-17.89,21.28-23.44,34.63
            c-5.56,13.38-8.33,27.87-8.33,43.5c0,23.96,7.2,43.07,21.62,57.3c14.4,14.24,35.67,25.7,63.8,34.38l59.9,18.23
            c7.29,2.08,15.02,5.04,23.18,8.85c8.15,3.82,15.7,8.78,22.65,14.84c6.94,6.08,12.67,13.47,17.19,22.14
            c4.51,8.69,6.77,19.11,6.77,31.25c0,8.33-1.4,17.44-4.17,27.34c-2.78,9.91-7.65,19.11-14.58,27.61
            c-6.95,8.52-16.32,15.55-28.13,21.1c-11.81,5.56-26.92,8.33-45.32,8.33c-0.02,0-0.04,0-0.06,0v0.01
            c-104.63-0.05-122.7-87.08-126.48-105.7h-5.73v112.45h7.81c1.22-3.06,5.8-18.57,43.69-10.82c12,2.45,50.5,11.37,80.8,11.37v-0.01
            c20.47,0,38.86-3.38,55.18-10.16c16.31-6.76,30.21-15.79,41.67-27.09c5.44-5.35,10.25-11.11,14.48-17.25
            c4.23,6.14,9.04,11.9,14.48,17.25c11.46,11.29,25.36,20.33,41.67,27.09c16.31,6.78,34.71,10.16,55.18,10.16v0
            c30.29,0,68.8-8.91,80.8-11.37c37.89-7.74,42.47,7.76,43.69,10.82h7.81V275.06H994.27z"></path>
    </g>
</svg>